<svg width="48" height="46" viewBox="0 0 48 46" fill="none" xmlns="http://www.w3.org/2000/svg">
<g clip-path="url(#clip0_112_153)">
<path d="M48 23C48 10.2974 37.2548 0 24 0C10.7452 0 0 10.2974 0 23C0 34.4798 8.77641 43.9951 20.25 45.7206V29.6484H14.1562V23H20.25V17.9328C20.25 12.1684 23.8331 8.98438 29.3152 8.98438C31.9402 8.98438 34.6875 9.43359 34.6875 9.43359V15.0938H31.6613C28.68 15.0938 27.75 16.8668 27.75 18.6875V23H34.4062L33.3422 29.6484H27.75V45.7206C39.2236 43.9951 48 34.4798 48 23Z" fill="white"/>
</g>
<defs>
<clipPath id="clip0_112_153">
<rect width="48" height="46" fill="white"/>
</clipPath>
</defs>
</svg>
